**ABCDEFGHIJKLMNOPQRSTUVWXYZabcdefghijklmnopqrstuvwxyz**************************
**PARASOLID !"#$%&'()*+,-./:;<=>?@[\]^_`{|}~0123456789**************************
**PART1;
MC=AMD64;
MC_MODEL=AMD64 Family 21 Model 2 Stepping 0, AuthenticAMD;
MC_ID=unknown;
OS=Windows_NT;
OS_RELEASE=unknown;
FRU=Parasolid Version 31.1, build 290,  3- 9-2020;
APPL=SOLIDWORKS 2020-2020128;
SITE=;
USER=unknown;
FORMAT=text;
GUISE=transmit;
KEY=makeProjectedPlanarWire;
FILE=makeProjectedPlanarWire.x_t;
DATE=Sat Oct  2 14:32:11 2021;
**PART2;
SCH=SCH_3101290_31100;
USFLD_SIZE=0;
**PART3;
**END_OF_HEADER*****************************************************************
T51 : TRANSMIT FILE created by modeller version 310129023 SCH_3101290_31100_1300
6222 0 12 34 CCCCCCI4 mesh1006 0 I8 polyline1008 0 CCCCCCCDI5 owner1040 0 CCCCCC
I13 boundary_mesh1006 0 I17 boundary_polyline1008 0 CCCA16 index_map_offset0 0 1
 dA9 index_map82 0 A17 node_id_index_map82 0 A20 schema_embedding_map82 0 A5 chi
ld12 0 A14 lowest_node_id0 0 1 dA16 mesh_offset_data206 0 Z1 101 0 2 0 0 0 0 0 0
 1e3 1e-8 0 3 0 1 0 3 1 4 5 6 7 0 0 8 9 10 0 0 0 0 0 0 0 70 11 CI9 list_type0 0
 1 uI10 notransmit0 0 1 lCCCDCCDI12 finger_index0 0 1 dI12 finger_block1012 0 CZ
2 0 4 T1 0 0 1 20 1 11 11 13 255 4 76 0 1 0 12 0 0 8 12 50 255 5 3 0 12 0 0 0 +.
0174438618976647 .0134 .03082937761381375 0 -1 0 0 0 -1 30 255 6 43 0 9 13 0 0 +
.01490373310217244 .0134 .01651862131995175 -.544639035015027 0 .838670567945424
 29 255 7 99 0 10 14 0 .01877279518370115 .0134 .02437806527424065 19 8 CCCCCCCA
5 owner12 0 Z8 75 0 1 0 0 4 V0 16 255 9 41 0 ?15 0 16 6 0 0 1 18 255 10 97 0 17
 0 18 7 ?1 17 255 17 0 19 20 21 10 22 23 0 24 -18 18 94 0 22 10 25 14 ?1 17 22 0
 0 0 0 18 17 23 0 21 +18 25 91 0 26 18 27 28 ?1 29 14 96 0 18 28 7 .018937260248
9788 .0134 .0244628707920691 29 28 93 0 25 29 14 .01957085063433635 .0134 .02466
28907450292 29 29 90 0 27 30 28 .02030212800325045 .0134 .02468167658441865 18 2
7 88 0 31 25 32 29 ?1 29 30 87 0 32 33 29 .02160500380423545 .0134 .020283241593
63005 18 32 85 0 34 27 35 30 ?1 29 33 84 0 35 36 30 .0209814714964856 .0134 .019
90071452368645 18 35 82 0 37 32 38 33 ?1 29 36 81 0 38 39 33 .0203411592139891 .
0134 .01972338731516 18 38 79 0 40 35 41 36 ?1 29 39 78 0 41 42 36 .020157038808
89145 .0134 .0197049371125156 18 41 77 0 43 38 44 39 ?1 29 42 67 0 44 45 39 .014
90373310217244 .0134 .01651862131995175 18 44 65 0 46 41 47 42 ?1 29 45 64 0 47
 48 42 .01852024435918085 .0134 .01094968234404344 18 47 62 0 49 44 50 45 ?1 29
 48 61 0 50 51 45 .02736838965545895 .0134 .01357062238618626 18 50 59 0 52 47 5
3 48 ?1 29 51 58 0 53 54 48 .02736838965545895 .0134 .02021082080110275 18 53 56
 0 55 50 56 51 ?1 29 54 55 0 56 57 51 .02509626689782755 .0134 .0278813786800483
 18 56 53 0 58 53 59 54 ?1 29 57 52 0 59 60 54 .02147975564081915 .0134 .0334503
176559566 18 59 50 0 61 56 62 57 ?1 29 60 49 0 62 63 57 .01263161034454106 .0134
 .03082937761381375 18 62 47 0 64 59 65 60 ?1 29 63 46 0 65 0 60 .01263161034454
106 .0134 .02418917919889725 18 65 44 0 66 62 0 63 ?1 17 66 0 67 64 15 65 46 68
 0 69 -15 255 67 10 0 66 12 0 17 64 0 67 61 66 62 69 70 0 71 +17 15 0 67 66 49 4
4 72 9 0 0 +17 46 0 0 0 0 44 66 68 0 15 +16 68 20 0 ?46 70 73 74 0 0 1 17 69 0 0
 0 0 65 64 70 0 0 -16 70 23 0 ?64 75 68 76 0 0 1 16 75 26 0 ?61 77 70 78 0 0 1 3
0 76 25 0 70 74 78 0 +.01263161034454106 .0134 .03082937761381375 -1306228645276
58e-29 0 1 30 74 22 0 68 79 76 0 +.01263161034454106 .0134 .02418917919889725 .2
84015344703923 0 -.958819734868193 31 255 78 28 0 75 76 80 0 +.0174438618976647
 .0134 .03082937761381375 0 1 0 0 0 -1 .00481225155312364 30 80 31 0 77 78 81 0
 +.02147975564081915 .0134 .0334503176559566 .544639035015028 0 -.83867056794542
3 16 77 29 0 ?58 82 75 80 0 0 1 30 81 34 0 82 80 83 0 +.02509626689782755 .0134
 .0278813786800483 .284015344703923 0 -.958819734868193 16 82 32 0 ?55 84 77 81
 0 0 1 30 83 37 0 84 81 13 0 +.02736838965545895 .0134 .02021082080110275 0 0 -1
 16 84 35 0 ?52 16 82 83 0 0 1 31 13 40 0 16 83 6 0 +.0225561381023353 .0134 .01
357062238618626 0 1 0 0 0 -1 .00481225155312364 16 16 38 0 ?49 9 84 13 0 0 1 17
 49 0 67 15 52 47 85 16 0 72 +17 52 0 67 49 55 50 86 84 0 85 +17 85 0 0 0 0 50 4
9 16 0 0 -17 72 0 0 0 0 47 15 9 0 0 -17 55 0 67 52 58 53 87 82 0 86 +17 86 0 0 0
 0 53 52 84 0 0 -17 58 0 67 55 61 56 88 77 0 87 +17 87 0 0 0 0 56 55 82 0 0 -17
 61 0 67 58 64 59 71 75 0 88 +17 88 0 0 0 0 59 58 77 0 0 -17 71 0 0 0 0 62 61 75
 0 0 -31 79 19 0 73 89 74 0 +.0174438618976647 .0134 .03082937761381375 0 1 0 0
 0 1 .0018 16 73 17 0 ?90 68 91 79 0 0 1 31 89 16 0 91 92 79 0 +.022556138102335
3 .0134 .01357062238618626 0 1 0 0 0 1 .0018 16 91 14 0 ?93 73 94 89 0 0 1 31 92
 13 0 94 0 89 0 +.02 .0134 .0222 0 1 0 0 0 1 .0025 16 94 11 0 ?24 91 23 92 23 95
 1 17 24 0 0 0 0 10 20 94 0 0 +16 23 98 0 ?22 94 96 92 96 94 1 16 95 80 0 ?43 97
 0 92 94 97 1 17 43 0 0 0 0 41 98 95 0 20 +16 97 83 0 ?40 99 95 92 95 99 1 17 40
 0 0 0 0 38 100 97 0 98 +16 99 86 0 ?37 101 97 92 97 101 1 17 37 0 0 0 0 35 102
 99 0 100 +16 101 89 0 ?34 103 99 92 99 103 1 17 34 0 0 0 0 32 104 101 0 102 +16
 103 92 0 ?31 96 101 92 101 96 1 17 31 0 0 0 0 27 105 103 0 104 +16 96 95 0 ?26
 23 103 92 103 23 1 17 26 0 0 0 0 25 21 96 0 105 +17 21 0 19 17 105 18 26 96 0 0
 -17 105 0 19 21 104 25 31 103 0 0 -15 19 7 0 20 12 106 17 104 0 19 105 102 27 3
4 101 0 0 -17 102 0 19 104 100 32 37 99 0 0 -17 100 0 19 102 98 35 40 97 0 0 -17
 98 0 19 100 20 38 43 95 0 0 -17 20 0 19 98 17 41 24 94 0 0 -14 255 12 1 107 ?0
 0 19 4 5 -0 0 0 0 4 15 106 8 0 108 12 109 17 108 0 106 108 108 0 93 91 0 0 -15
 109 9 0 110 12 67 17 110 0 109 110 110 0 90 73 0 0 -17 90 0 0 0 0 0 110 73 0 0
 +17 93 0 0 0 0 0 108 91 0 0 +81 255 1 107 6 111 12 0 0 0 0 112 80 255 1 111 0 1
13 8001 0 0 0 0 3 5 0 0 0 FFFFTFTFFFFFFF2 83 255 3 112 .792156862745098 .8196078
43137255 .933333333333333 79 255 15 113 SDL/TYSA_COLOUR74 4 CI16 index_map_offse
t0 0 1 dCCZ20 11 1 0 0 107 0 0 0 0 0 0 0 0 0 0 0 0 0 0 0 0 0 0 0 1 0 
